<?xml version="1.0"?>
<svg version="1.1" xmlns="http://www.w3.org/2000/svg" width="400px" height="42px" style=""><path fill="#ffc70f" d="M64.756,24.08l-0.7-2.408s-1.316-0.448-3.164-0.448c-2.996,0-4.676,2.184-4.676,6.86c0,4.536,1.764,6.496,4.76,6.496c1.456,0,3.08-0.504,3.08-0.504l0-3.528l-2.1-0.644l0-2.296l8.064-0.14l0,2.436l-1.904,0.644l0,5.712s-2.884,1.876-7.616,1.876c-5.684,0-8.96-3.416-8.96-9.912c0-6.58,3.696-10.5,9.436-10.5c3.388,0,6.524,1.316,6.524,1.316l-0.14,5.04l-2.604,0z M83.72628,17.724c5.6,0,8.82,3.696,8.82,9.94c0,6.3-3.78,10.5-9.38,10.5s-8.68-3.5-8.68-10.08c0-6.44,3.556-10.36,9.24-10.36z M83.58628,21.224c-2.8,0-4.34,1.736-4.34,6.72c0,4.62,1.26,6.72,4.06,6.72s4.48-1.82,4.48-6.86c0-4.62-1.4-6.58-4.2-6.58z M106.81256,17.724c5.6,0,8.82,3.696,8.82,9.94c0,6.3-3.78,10.5-9.38,10.5s-8.68-3.5-8.68-10.08c0-6.44,3.556-10.36,9.24-10.36z M106.67256,21.224c-2.8,0-4.34,1.736-4.34,6.72c0,4.62,1.26,6.72,4.06,6.72s4.48-1.82,4.48-6.86c0-4.62-1.4-6.58-4.2-6.58z M133.87484,24.08l-0.7-2.408s-1.316-0.448-3.164-0.448c-2.996,0-4.676,2.184-4.676,6.86c0,4.536,1.764,6.496,4.76,6.496c1.456,0,3.08-0.504,3.08-0.504l0-3.528l-2.1-0.644l0-2.296l8.064-0.14l0,2.436l-1.904,0.644l0,5.712s-2.884,1.876-7.616,1.876c-5.684,0-8.96-3.416-8.96-9.912c0-6.58,3.696-10.5,9.436-10.5c3.388,0,6.524,1.316,6.524,1.316l-0.14,5.04l-2.604,0z M153.62912,34.44l0.616-3.08l2.66,0l0,6.44l-14,0l0-2.38l2.1-0.84l0-13.16l-2.1-0.84l0-2.38l8.54-0.14l0,2.52l-2.1,0.84l0,13.02l4.284,0z M172.4874,26.04l0,3.08l-5.656,0l0,5.32l5.012,0l0.644-2.296l2.52,0l0,5.656l-14.616,0l0-2.38l2.1-0.84l0-13.16l-2.1-0.84l0-2.38l6.44-0.14l7.84,0l0,5.404l-2.52,0l-0.7-2.044l-4.62,0l0,4.62l5.656,0z"/><path fill="#" d=""/></svg>
